Nobile-Bold.ufo
<glyph name="ampersand" format="1">
  <advance width="1783"/>
  <unicode hex="0026"/>
  <outline>
    <contour>
      <point x="991" y="1235" type="curve" smooth="yes"/>
      <point x="991" y="1338"/>
      <point x="920" y="1387"/>
      <point x="805" y="1387" type="curve" smooth="yes"/>
      <point x="680" y="1387"/>
      <point x="618" y="1339"/>
      <point x="618" y="1242" type="curve" smooth="yes"/>
      <point x="618" y="1184"/>
      <point x="647" y="1136"/>
      <point x="680" y="1098" type="curve" smooth="no"/>
      <point x="705.274" y="1072.73"/>
      <point x="736.833" y="1041.1"/>
      <point x="767" y="1023" type="curve" smooth="no"/>
      <point x="881" y="1059"/>
      <point x="991" y="1108"/>
    </contour>
    <contour>
      <point x="823" y="-40" type="curve" smooth="yes"/>
      <point x="458" y="-40"/>
      <point x="170" y="96"/>
      <point x="170" y="435" type="curve" smooth="yes"/>
      <point x="170" y="705"/>
      <point x="347" y="815"/>
      <point x="532" y="897" type="curve" smooth="no"/>
      <point x="463.218" y="953.82"/>
      <point x="319" y="1101.94"/>
      <point x="319" y="1268" type="curve" smooth="yes"/>
      <point x="319" y="1486"/>
      <point x="533" y="1612"/>
      <point x="796" y="1612" type="curve" smooth="yes"/>
      <point x="1065" y="1612"/>
      <point x="1253" y="1475"/>
      <point x="1253" y="1273" type="curve" smooth="yes"/>
      <point x="1253" y="1081"/>
      <point x="1164" y="898"/>
      <point x="969" y="826" type="curve" smooth="no"/>
      <point x="1291" y="549" type="line" smooth="no"/>
      <point x="1291" y="901" type="line" smooth="no"/>
      <point x="1578" y="894" type="line" smooth="no"/>
      <point x="1578" y="729"/>
      <point x="1554" y="512"/>
      <point x="1538" y="426" type="curve" smooth="yes"/>
      <point x="1525" y="357" type="line" smooth="no"/>
      <point x="1791" y="130" type="line" smooth="no"/>
      <point x="1643" y="-54" type="line" smooth="no"/>
      <point x="1404" y="148" type="line" smooth="no"/>
      <point x="1302.84" y="26.6089"/>
      <point x="1103.96" y="-40"/>
    </contour>
    <contour>
      <point x="483" y="459" type="curve" smooth="yes"/>
      <point x="483" y="310"/>
      <point x="586" y="227"/>
      <point x="823" y="227" type="curve" smooth="yes"/>
      <point x="1069" y="227"/>
      <point x="1190" y="318"/>
      <point x="1190" y="322" type="curve" smooth="no"/>
      <point x="743" y="708" type="line" smooth="no"/>
      <point x="599" y="671"/>
      <point x="483" y="604"/>
    </contour>
  </outline>
</glyph>
<glyph name="hyphen" format="1">
  <advance width="1120"/>
  <unicode hex="002d"/>
  <outline>
    <contour>
      <point x="950" y="574" type="line" smooth="no"/>
      <point x="156" y="574" type="line" smooth="no"/>
      <point x="156" y="836" type="line" smooth="no"/>
      <point x="950" y="836" type="line" smooth="no"/>
    </contour>
  </outline>
</glyph>
<glyph name="period" format="1">
  <advance width="571"/>
  <unicode hex="002e"/>
  <outline>
    <contour>
      <point x="98" y="194" type="curve" smooth="yes"/>
      <point x="98" y="303"/>
      <point x="182" y="388"/>
      <point x="291" y="388" type="curve" smooth="yes"/>
      <point x="399" y="388"/>
      <point x="487" y="303"/>
      <point x="487" y="194" type="curve" smooth="yes"/>
      <point x="487" y="84"/>
      <point x="400" y="0"/>
      <point x="291" y="0" type="curve" smooth="yes"/>
      <point x="179" y="0"/>
      <point x="98" y="88"/>
    </contour>
  </outline>
</glyph>
<glyph name="three" format="1">
  <advance width="1179"/>
  <unicode hex="0033"/>
  <outline>
    <contour>
      <point x="519" y="940" type="curve" smooth="yes"/>
      <point x="406.005" y="940"/>
      <point x="273.503" y="887.557"/>
      <point x="234" y="870" type="curve" smooth="no"/>
      <point x="120" y="1099" type="line" smooth="no"/>
      <point x="184.66" y="1134.92"/>
      <point x="315.553" y="1202"/>
      <point x="494" y="1202" type="curve" smooth="yes"/>
      <point x="787" y="1202"/>
      <point x="994" y="1104"/>
      <point x="994" y="818" type="curve" smooth="yes"/>
      <point x="994" y="695"/>
      <point x="903.209" y="576"/>
      <point x="763" y="547" type="curve" smooth="no"/>
      <point x="913.962" y="513"/>
      <point x="1030" y="378"/>
      <point x="1030" y="239" type="curve" smooth="yes"/>
      <point x="1030" y="-51"/>
      <point x="808" y="-176"/>
      <point x="512" y="-176" type="curve" smooth="no"/>
      <point x="318.855" y="-177.091"/>
      <point x="198.241" y="-132.805"/>
      <point x="138" y="-108" type="curve" smooth="no"/>
      <point x="222" y="144" type="line" smooth="no"/>
      <point x="241" y="136"/>
      <point x="370" y="82"/>
      <point x="502" y="82" type="curve" smooth="yes"/>
      <point x="638" y="82"/>
      <point x="706" y="124"/>
      <point x="706" y="237" type="curve" smooth="yes"/>
      <point x="706" y="361.935"/>
      <point x="559.047" y="424"/>
      <point x="410" y="424" type="curve" smooth="no"/>
      <point x="410" y="670" type="line" smooth="no"/>
      <point x="549" y="670"/>
      <point x="684" y="712"/>
      <point x="684" y="829" type="curve" smooth="yes"/>
      <point x="684" y="904"/>
      <point x="618" y="940"/>
    </contour>
  </outline>
</glyph>
<glyph name="seven" format="1">
  <advance width="1126"/>
  <unicode hex="0037"/>
  <outline>
    <contour>
      <point x="1008" y="1169" type="line" smooth="no"/>
      <point x="1090" y="989" type="line" smooth="no"/>
      <point x="502" y="-236" type="line" smooth="no"/>
      <point x="205" y="-104" type="line" smooth="no"/>
      <point x="693" y="911" type="line" smooth="no"/>
      <point x="130" y="911" type="line" smooth="no"/>
      <point x="130" y="1169" type="line" smooth="no"/>
    </contour>
  </outline>
</glyph>
<glyph name="nine" format="1">
  <advance width="1265"/>
  <unicode hex="0039"/>
  <outline>
    <contour>
      <point x="431" y="684" type="curve" smooth="no"/>
      <point x="431" y="530.619"/>
      <point x="515.433" y="485.967"/>
      <point x="637.054" y="485.967" type="curve" smooth="yes"/>
      <point x="695.801" y="485.967"/>
      <point x="763.224" y="496.386"/>
      <point x="834" y="510" type="curve" smooth="no"/>
      <point x="849" y="648" type="line" smooth="no"/>
      <point x="846" y="812"/>
      <point x="787" y="928"/>
      <point x="626" y="928" type="curve" smooth="yes"/>
      <point x="472" y="928"/>
      <point x="433" y="849"/>
    </contour>
    <contour>
      <point x="116" y="706" type="curve" smooth="yes"/>
      <point x="116" y="990"/>
      <point x="317" y="1188"/>
      <point x="604" y="1188" type="curve" smooth="yes"/>
      <point x="959" y="1188"/>
      <point x="1170" y="983"/>
      <point x="1170" y="633" type="curve" smooth="yes"/>
      <point x="1170" y="104"/>
      <point x="728" y="-196"/>
      <point x="394" y="-270" type="curve" smooth="no"/>
      <point x="316" y="-4" type="line" smooth="no"/>
      <point x="535.654" y="40.9925"/>
      <point x="698.483" y="152.925"/>
      <point x="787" y="289" type="curve" smooth="no"/>
      <point x="704.207" y="259.348"/>
      <point x="627.185" y="245.818"/>
      <point x="557.041" y="245.818" type="curve" smooth="yes"/>
      <point x="284.654" y="245.818"/>
      <point x="116" y="449.838"/>
    </contour>
  </outline>
</glyph>
<glyph name="colon" format="1">
  <advance width="749"/>
  <unicode hex="003a"/>
  <outline>
    <contour>
      <point x="191" y="736" type="line" smooth="no"/>
      <point x="191" y="1168" type="line" smooth="no"/>
      <point x="609" y="1168" type="line" smooth="no"/>
      <point x="609" y="736" type="line" smooth="no"/>
    </contour>
    <contour>
      <point x="191" y="0" type="line" smooth="no"/>
      <point x="191" y="432" type="line" smooth="no"/>
      <point x="609" y="432" type="line" smooth="no"/>
      <point x="609" y="0" type="line" smooth="no"/>
    </contour>
  </outline>
</glyph>
<glyph name="equal" format="1">
  <advance width="1188"/>
  <unicode hex="003d"/>
  <outline>
    <contour>
      <point x="1073" y="644" type="line" smooth="no"/>
      <point x="77" y="644" type="line" smooth="no"/>
      <point x="77" y="877" type="line" smooth="no"/>
      <point x="1073" y="877" type="line" smooth="no"/>
    </contour>
    <contour>
      <point x="1073" y="269" type="line" smooth="no"/>
      <point x="77" y="269" type="line" smooth="no"/>
      <point x="77" y="502" type="line" smooth="no"/>
      <point x="1073" y="502" type="line" smooth="no"/>
    </contour>
  </outline>
</glyph>
<glyph name="greater" format="1">
  <advance width="1135"/>
  <unicode hex="003e"/>
  <outline>
    <contour>
      <point x="1032" y="476" type="line" smooth="no"/>
      <point x="192" y="-37" type="line" smooth="no"/>
      <point x="192" y="264" type="line" smooth="no"/>
      <point x="729" y="594" type="line" smooth="no"/>
      <point x="191" y="924" type="line" smooth="no"/>
      <point x="191" y="1225" type="line" smooth="no"/>
      <point x="1032" y="712" type="line" smooth="no"/>
    </contour>
  </outline>
</glyph>
<glyph name="A" format="1">
  <advance width="1510"/>
  <unicode hex="0041"/>
  <outline>
    <contour>
      <point x="761" y="1197" type="line" smooth="no"/>
      <point x="551" y="527" type="line" smooth="no"/>
      <point x="959" y="527" type="line" smooth="no"/>
    </contour>
    <contour>
      <point x="552" y="1578" type="line" smooth="no"/>
      <point x="959" y="1578" type="line" smooth="no"/>
      <point x="1478" y="0" type="line" smooth="no"/>
      <point x="1117" y="0" type="line" smooth="no"/>
      <point x="1006" y="349" type="line" smooth="no"/>
      <point x="504" y="349" type="line" smooth="no"/>
      <point x="393" y="0" type="line" smooth="no"/>
      <point x="32" y="0" type="line" smooth="no"/>
    </contour>
  </outline>
</glyph>
<glyph name="B" format="1">
  <advance width="1434"/>
  <unicode hex="0042"/>
  <outline>
    <contour>
      <point x="515" y="1323" type="line" smooth="no"/>
      <point x="515" y="928" type="line" smooth="no"/>
      <point x="654" y="928" type="line" smooth="yes"/>
      <point x="795" y="928"/>
      <point x="984" y="955"/>
      <point x="984" y="1135" type="curve" smooth="yes"/>
      <point x="984" y="1327"/>
      <point x="804" y="1323"/>
      <point x="656" y="1323" type="curve" smooth="yes"/>
    </contour>
    <contour>
      <point x="634" y="254" type="line" smooth="yes"/>
      <point x="799" y="254"/>
      <point x="1003" y="238"/>
      <point x="1003" y="465" type="curve" smooth="yes"/>
      <point x="1003" y="690"/>
      <point x="837" y="703"/>
      <point x="652" y="703" type="curve" smooth="yes"/>
      <point x="515" y="703" type="line" smooth="no"/>
      <point x="515" y="254" type="line" smooth="no"/>
    </contour>
    <contour>
      <point x="564" y="1578" type="line" smooth="yes"/>
      <point x="860" y="1578"/>
      <point x="1310" y="1561"/>
      <point x="1310" y="1160" type="curve" smooth="yes"/>
      <point x="1310" y="969"/>
      <point x="1145" y="850"/>
      <point x="968" y="832" type="curve" smooth="no"/>
      <point x="1192" y="799"/>
      <point x="1367" y="713"/>
      <point x="1367" y="461" type="curve" smooth="yes"/>
      <point x="1367" y="64"/>
      <point x="1007" y="0"/>
      <point x="684" y="0" type="curve" smooth="yes"/>
      <point x="146" y="0" type="line" smooth="no"/>
      <point x="146" y="1578" type="line" smooth="no"/>
    </contour>
  </outline>
</glyph>
<glyph name="C" format="1">
  <advance width="1292"/>
  <unicode hex="0043"/>
  <outline>
    <contour>
      <point x="464" y="782" type="curve" smooth="yes"/>
      <point x="464" y="420"/>
      <point x="584" y="239"/>
      <point x="824" y="239" type="curve" smooth="yes"/>
      <point x="945" y="239"/>
      <point x="1058" y="275"/>
      <point x="1164" y="348" type="curve" smooth="no"/>
      <point x="1264" y="88" type="line" smooth="no"/>
      <point x="1191" y="26"/>
      <point x="1011" y="-28"/>
      <point x="790" y="-28" type="curve" smooth="yes"/>
      <point x="357" y="-28"/>
      <point x="97" y="268"/>
      <point x="97" y="791" type="curve" smooth="yes"/>
      <point x="97" y="1315"/>
      <point x="350" y="1602"/>
      <point x="790" y="1602" type="curve" smooth="yes"/>
      <point x="952" y="1602"/>
      <point x="1137" y="1574"/>
      <point x="1264" y="1487" type="curve" smooth="no"/>
      <point x="1164" y="1227" type="line" smooth="no"/>
      <point x="1039" y="1309"/>
      <point x="937" y="1336"/>
      <point x="816" y="1336" type="curve" smooth="yes"/>
      <point x="576" y="1336"/>
      <point x="464" y="1169"/>
    </contour>
  </outline>
</glyph>
<glyph name="D" format="1">
  <advance width="1542"/>
  <unicode hex="0044"/>
  <outline>
    <contour>
      <point x="1075" y="785" type="curve" smooth="yes"/>
      <point x="1075" y="1151"/>
      <point x="997" y="1326"/>
      <point x="598" y="1326" type="curve" smooth="yes"/>
      <point x="515" y="1326" type="line" smooth="no"/>
      <point x="515" y="254" type="line" smooth="no"/>
      <point x="598" y="254" type="line" smooth="yes"/>
      <point x="985" y="254"/>
      <point x="1075" y="418"/>
    </contour>
    <contour>
      <point x="1445" y="782" type="curve" smooth="yes"/>
      <point x="1445" y="252"/>
      <point x="1159" y="0"/>
      <point x="637" y="0" type="curve" smooth="yes"/>
      <point x="146" y="0" type="line" smooth="no"/>
      <point x="146" y="1578" type="line" smooth="no"/>
      <point x="637" y="1578" type="line" smooth="yes"/>
      <point x="1169" y="1578"/>
      <point x="1445" y="1318"/>
    </contour>
  </outline>
</glyph>
<glyph name="E" format="1">
  <advance width="1295"/>
  <unicode hex="0045"/>
  <outline>
    <contour>
      <point x="1196" y="0" type="line" smooth="no"/>
      <point x="146" y="0" type="line" smooth="no"/>
      <point x="146" y="1578" type="line" smooth="no"/>
      <point x="1186" y="1578" type="line" smooth="no"/>
      <point x="1186" y="1310" type="line" smooth="no"/>
      <point x="514" y="1310" type="line" smooth="no"/>
      <point x="514" y="929" type="line" smooth="no"/>
      <point x="1116" y="929" type="line" smooth="no"/>
      <point x="1116" y="703" type="line" smooth="no"/>
      <point x="514" y="703" type="line" smooth="no"/>
      <point x="514" y="268" type="line" smooth="no"/>
      <point x="1196" y="268" type="line" smooth="no"/>
    </contour>
  </outline>
</glyph>
<glyph name="F" format="1">
  <advance width="1234"/>
  <unicode hex="0046"/>
  <outline>
    <contour>
      <point x="514" y="702" type="line" smooth="no"/>
      <point x="514" y="0" type="line" smooth="no"/>
      <point x="146" y="0" type="line" smooth="no"/>
      <point x="146" y="1578" type="line" smooth="no"/>
      <point x="1226" y="1578" type="line" smooth="no"/>
      <point x="1226" y="1310" type="line" smooth="no"/>
      <point x="514" y="1310" type="line" smooth="no"/>
      <point x="514" y="928" type="line" smooth="no"/>
      <point x="1140" y="928" type="line" smooth="no"/>
      <point x="1140" y="702" type="line" smooth="no"/>
    </contour>
  </outline>
</glyph>
<glyph name="G" format="1">
  <advance width="1565"/>
  <unicode hex="0047"/>
  <outline>
    <contour>
      <point x="1100" y="314" type="curve" smooth="no"/>
      <point x="1100" y="655" type="line" smooth="no"/>
      <point x="742" y="655" type="line" smooth="no"/>
      <point x="742" y="879" type="line" smooth="no"/>
      <point x="1423" y="879" type="line" smooth="no"/>
      <point x="1423" y="0" type="line" smooth="no"/>
      <point x="1186" y="0" type="line" smooth="no"/>
      <point x="1138" y="146" type="line" smooth="no"/>
      <point x="1084" y="29"/>
      <point x="938" y="-28"/>
      <point x="770" y="-28" type="curve" smooth="yes"/>
      <point x="354" y="-28"/>
      <point x="97" y="243"/>
      <point x="97" y="770" type="curve" smooth="yes"/>
      <point x="97" y="1337"/>
      <point x="427" y="1603"/>
      <point x="840" y="1603" type="curve" smooth="yes"/>
      <point x="1014" y="1603"/>
      <point x="1205" y="1564"/>
      <point x="1391" y="1488" type="curve" smooth="no"/>
      <point x="1284" y="1222" type="line" smooth="no"/>
      <point x="1135" y="1291"/>
      <point x="994" y="1332"/>
      <point x="870" y="1332" type="curve" smooth="yes"/>
      <point x="622" y="1332"/>
      <point x="466" y="1165"/>
      <point x="466" y="768" type="curve" smooth="yes"/>
      <point x="466" y="399"/>
      <point x="605" y="239"/>
      <point x="808" y="239" type="curve" smooth="yes"/>
      <point x="896" y="239"/>
      <point x="995" y="265"/>
    </contour>
  </outline>
</glyph>
<glyph name="H" format="1">
  <advance width="1591"/>
  <unicode hex="0048"/>
  <outline>
    <contour>
      <point x="1076" y="0" type="line" smooth="no"/>
      <point x="1076" y="704" type="line" smooth="no"/>
      <point x="515" y="704" type="line" smooth="no"/>
      <point x="515" y="0" type="line" smooth="no"/>
      <point x="146" y="0" type="line" smooth="no"/>
      <point x="146" y="1578" type="line" smooth="no"/>
      <point x="515" y="1578" type="line" smooth="no"/>
      <point x="515" y="930" type="line" smooth="no"/>
      <point x="1076" y="930" type="line" smooth="no"/>
      <point x="1076" y="1578" type="line" smooth="no"/>
      <point x="1445" y="1578" type="line" smooth="no"/>
      <point x="1445" y="0" type="line" smooth="no"/>
    </contour>
  </outline>
</glyph>
<glyph name="J" format="1">
  <advance width="895"/>
  <unicode hex="004a"/>
  <outline>
    <contour>
      <point x="31" y="154" type="line" smooth="no"/>
      <point x="270" y="183"/>
      <point x="348" y="260"/>
      <point x="348" y="506" type="curve" smooth="yes"/>
      <point x="348" y="1578" type="line" smooth="no"/>
      <point x="717" y="1578" type="line" smooth="no"/>
      <point x="717" y="507" type="line" smooth="yes"/>
      <point x="717" y="95"/>
      <point x="532" y="-77"/>
      <point x="125" y="-86" type="curve" smooth="no"/>
    </contour>
  </outline>
</glyph>
<glyph name="M" format="1">
  <advance width="1963"/>
  <unicode hex="004d"/>
  <outline>
    <contour>
      <point x="812" y="0" type="line" smooth="no"/>
      <point x="452" y="1085" type="line" smooth="no"/>
      <point x="452" y="0" type="line" smooth="no"/>
      <point x="146" y="0" type="line" smooth="no"/>
      <point x="146" y="1578" type="line" smooth="no"/>
      <point x="581" y="1578" type="line" smooth="no"/>
      <point x="975" y="408" type="line" smooth="no"/>
      <point x="1381" y="1578" type="line" smooth="no"/>
      <point x="1817" y="1578" type="line" smooth="no"/>
      <point x="1817" y="0" type="line" smooth="no"/>
      <point x="1511" y="0" type="line" smooth="no"/>
      <point x="1511" y="1085" type="line" smooth="no"/>
      <point x="1156" y="0" type="line" smooth="no"/>
    </contour>
  </outline>
</glyph>
<glyph name="O" format="1">
  <advance width="1614"/>
  <unicode hex="004f"/>
  <outline>
    <contour>
      <point x="1517" y="789" type="curve" smooth="yes"/>
      <point x="1517" y="288"/>
      <point x="1296" y="-28"/>
      <point x="807" y="-28" type="curve" smooth="yes"/>
      <point x="318" y="-28"/>
      <point x="97" y="288"/>
      <point x="97" y="789" type="curve" smooth="yes"/>
      <point x="97" y="1302"/>
      <point x="330" y="1602"/>
      <point x="807" y="1602" type="curve" smooth="yes"/>
      <point x="1285" y="1602"/>
      <point x="1517" y="1299"/>
    </contour>
    <contour>
      <point x="466" y="789" type="curve" smooth="yes"/>
      <point x="466" y="484"/>
      <point x="536" y="238"/>
      <point x="807" y="238" type="curve" smooth="yes"/>
      <point x="1081" y="238"/>
      <point x="1148" y="491"/>
      <point x="1148" y="789" type="curve" smooth="yes"/>
      <point x="1148" y="1095"/>
      <point x="1077" y="1339"/>
      <point x="807" y="1339" type="curve" smooth="yes"/>
      <point x="536" y="1339"/>
      <point x="466" y="1093"/>
    </contour>
  </outline>
</glyph>
<glyph name="T" format="1">
  <advance width="1157"/>
  <unicode hex="0054"/>
  <outline>
    <contour>
      <point x="1168" y="1310" type="line" smooth="no"/>
      <point x="766" y="1310" type="line" smooth="no"/>
      <point x="766" y="0" type="line" smooth="no"/>
      <point x="397" y="0" type="line" smooth="no"/>
      <point x="397" y="1310" type="line" smooth="no"/>
      <point x="-12" y="1310" type="line" smooth="no"/>
      <point x="-12" y="1578" type="line" smooth="no"/>
      <point x="1168" y="1578" type="line" smooth="no"/>
    </contour>
  </outline>
</glyph>
<glyph name="X" format="1">
  <advance width="1370"/>
  <unicode hex="0058"/>
  <outline>
    <contour>
      <point x="685" y="1067" type="line" smooth="no"/>
      <point x="991" y="1578" type="line" smooth="no"/>
      <point x="1374" y="1578" type="line" smooth="no"/>
      <point x="891" y="797" type="line" smooth="no"/>
      <point x="1374" y="0" type="line" smooth="no"/>
      <point x="983" y="0" type="line" smooth="no"/>
      <point x="685" y="494" type="line" smooth="no"/>
      <point x="387" y="0" type="line" smooth="no"/>
      <point x="-4" y="0" type="line" smooth="no"/>
      <point x="479" y="797" type="line" smooth="no"/>
      <point x="-4" y="1578" type="line" smooth="no"/>
      <point x="379" y="1578" type="line" smooth="no"/>
    </contour>
  </outline>
</glyph>
<glyph name="Z" format="1">
  <advance width="1231"/>
  <unicode hex="005a"/>
  <outline>
    <contour>
      <point x="1161" y="1578" type="line" smooth="no"/>
      <point x="1161" y="1354" type="line" smooth="no"/>
      <point x="451" y="268" type="line" smooth="no"/>
      <point x="1163" y="268" type="line" smooth="no"/>
      <point x="1163" y="0" type="line" smooth="no"/>
      <point x="53" y="0" type="line" smooth="no"/>
      <point x="53" y="251" type="line" smooth="no"/>
      <point x="746" y="1310" type="line" smooth="no"/>
      <point x="53" y="1310" type="line" smooth="no"/>
      <point x="53" y="1578" type="line" smooth="no"/>
    </contour>
  </outline>
</glyph>
<glyph name="bracketright" format="1">
  <advance width="1157"/>
  <unicode hex="005d"/>
  <outline>
    <contour>
      <point x="229" y="1578" type="line" smooth="no"/>
      <point x="979" y="1578" type="line" smooth="no"/>
      <point x="979" y="0" type="line" smooth="no"/>
      <point x="229" y="0" type="line" smooth="no"/>
      <point x="229" y="262" type="line" smooth="no"/>
      <point x="645" y="262" type="line" smooth="no"/>
      <point x="645" y="1316" type="line" smooth="no"/>
      <point x="229" y="1316" type="line" smooth="no"/>
    </contour>
  </outline>
</glyph>
<glyph name="d" format="1">
  <advance width="1322"/>
  <unicode hex="0064"/>
  <outline>
    <contour>
      <point x="525" y="1196" type="curve" smooth="yes"/>
      <point x="658" y="1196"/>
      <point x="761" y="1146"/>
      <point x="834" y="1046" type="curve" smooth="no"/>
      <point x="834" y="1578" type="line" smooth="no"/>
      <point x="1185" y="1638" type="line" smooth="no"/>
      <point x="1185" y="0" type="line" smooth="no"/>
      <point x="938" y="0" type="line" smooth="no"/>
      <point x="862" y="166" type="line" smooth="no"/>
      <point x="828" y="54"/>
      <point x="679" y="-26"/>
      <point x="546" y="-26" type="curve" smooth="yes"/>
      <point x="161" y="-26"/>
      <point x="78" y="307"/>
      <point x="78" y="624" type="curve" smooth="yes"/>
      <point x="78" y="950"/>
      <point x="252" y="1196"/>
    </contour>
    <contour>
      <point x="428" y="586" type="curve" smooth="yes"/>
      <point x="428" y="335"/>
      <point x="495" y="210"/>
      <point x="630" y="210" type="curve" smooth="yes"/>
      <point x="725" y="210"/>
      <point x="793" y="239"/>
      <point x="834" y="296" type="curve" smooth="no"/>
      <point x="834" y="856" type="line" smooth="no"/>
      <point x="755" y="927"/>
      <point x="676" y="962"/>
      <point x="599" y="962" type="curve" smooth="yes"/>
      <point x="470" y="962"/>
      <point x="428" y="837"/>
    </contour>
  </outline>
</glyph>
<glyph name="k" format="1">
  <advance width="1308"/>
  <unicode hex="006b"/>
  <outline>
    <contour>
      <point x="497" y="415" type="line" smooth="no"/>
      <point x="497" y="0" type="line" smooth="no"/>
      <point x="146" y="0" type="line" smooth="no"/>
      <point x="146" y="1578" type="line" smooth="no"/>
      <point x="497" y="1638" type="line" smooth="no"/>
      <point x="497" y="716" type="line" smooth="no"/>
      <point x="894" y="1164" type="line" smooth="no"/>
      <point x="1298" y="1164" type="line" smooth="no"/>
      <point x="816" y="665" type="line" smooth="no"/>
      <point x="1318" y="0" type="line" smooth="no"/>
      <point x="913" y="0" type="line" smooth="no"/>
      <point x="589" y="502" type="line" smooth="no"/>
    </contour>
  </outline>
</glyph>
<glyph name="p" format="1">
  <advance width="1325"/>
  <unicode hex="0070"/>
  <outline>
    <contour>
      <point x="491" y="-406" type="line" smooth="no"/>
      <point x="140" y="-406" type="line" smooth="no"/>
      <point x="140" y="1164" type="line" smooth="no"/>
      <point x="407" y="1164" type="line" smooth="no"/>
      <point x="473" y="1009" type="line" smooth="no"/>
      <point x="501" y="1107"/>
      <point x="652" y="1196"/>
      <point x="814" y="1196" type="curve" smooth="yes"/>
      <point x="1023" y="1196"/>
      <point x="1250" y="1047"/>
      <point x="1250" y="568" type="curve" smooth="yes"/>
      <point x="1250" y="152"/>
      <point x="1011" y="-28"/>
      <point x="790" y="-28" type="curve" smooth="yes"/>
      <point x="672" y="-28"/>
      <point x="559" y="13"/>
      <point x="491" y="90" type="curve" smooth="no"/>
    </contour>
    <contour>
      <point x="723" y="964" type="curve" smooth="yes"/>
      <point x="638" y="964"/>
      <point x="560" y="928"/>
      <point x="491" y="857" type="curve" smooth="no"/>
      <point x="491" y="318" type="line" smooth="no"/>
      <point x="590" y="239"/>
      <point x="667" y="206"/>
      <point x="725" y="206" type="curve" smooth="yes"/>
      <point x="862" y="206"/>
      <point x="902" y="340"/>
      <point x="902" y="601" type="curve" smooth="yes"/>
      <point x="902" y="773"/>
      <point x="892" y="964"/>
    </contour>
  </outline>
</glyph>
<glyph name="q" format="1">
  <advance width="1335"/>
  <unicode hex="0071"/>
  <outline>
    <contour>
      <point x="560" y="1196" type="curve" smooth="yes"/>
      <point x="670" y="1196"/>
      <point x="768" y="1157"/>
      <point x="836" y="1004" type="curve" smooth="no"/>
      <point x="885" y="1164" type="line" smooth="no"/>
      <point x="1185" y="1164" type="line" smooth="no"/>
      <point x="1185" y="-406" type="line" smooth="no"/>
      <point x="834" y="-406" type="line" smooth="no"/>
      <point x="834" y="121" type="line" smooth="no"/>
      <point x="751" y="24"/>
      <point x="660" y="-26"/>
      <point x="561" y="-26" type="curve" smooth="yes"/>
      <point x="215" y="-26"/>
      <point x="78" y="265"/>
      <point x="78" y="565" type="curve" smooth="yes"/>
      <point x="78" y="965"/>
      <point x="233" y="1196"/>
    </contour>
    <contour>
      <point x="598" y="209" type="curve" smooth="yes"/>
      <point x="677" y="209"/>
      <point x="755" y="248"/>
      <point x="834" y="325" type="curve" smooth="no"/>
      <point x="834" y="831" type="line" smooth="no"/>
      <point x="770" y="933"/>
      <point x="723" y="960"/>
      <point x="635" y="960" type="curve" smooth="yes"/>
      <point x="465" y="960"/>
      <point x="427" y="782"/>
      <point x="427" y="600" type="curve" smooth="yes"/>
      <point x="427" y="467"/>
      <point x="422" y="209"/>
    </contour>
  </outline>
</glyph>
<glyph name="r" format="1">
  <advance width="844"/>
  <unicode hex="0072"/>
  <outline>
    <contour>
      <point x="481" y="980" type="line" smooth="no"/>
      <point x="543" y="1133"/>
      <point x="686" y="1164"/>
      <point x="832" y="1164" type="curve" smooth="no"/>
      <point x="832" y="867" type="line" smooth="no"/>
      <point x="798" y="879"/>
      <point x="760" y="885"/>
      <point x="718" y="885" type="curve" smooth="yes"/>
      <point x="641" y="885"/>
      <point x="566" y="857"/>
      <point x="491" y="800" type="curve" smooth="no"/>
      <point x="491" y="0" type="line" smooth="no"/>
      <point x="140" y="0" type="line" smooth="no"/>
      <point x="140" y="1164" type="line" smooth="no"/>
      <point x="441" y="1164" type="line" smooth="no"/>
    </contour>
  </outline>
</glyph>
<glyph name="sterling" format="1">
  <advance width="1203"/>
  <unicode hex="00a3"/>
  <outline>
    <contour>
      <point x="964" y="971" type="line" smooth="no"/>
      <point x="928.771" y="1002.71"/>
      <point x="842.416" y="1061"/>
      <point x="701" y="1061" type="curve" smooth="yes"/>
      <point x="536" y="1061"/>
      <point x="519" y="975"/>
      <point x="519" y="909" type="curve" smooth="yes"/>
      <point x="519" y="838.504"/>
      <point x="555.668" y="771.999"/>
      <point x="599" y="720" type="curve" smooth="no"/>
      <point x="1004" y="720" type="line" smooth="no"/>
      <point x="1004" y="572" type="line" smooth="no"/>
      <point x="617" y="572" type="line" smooth="no"/>
      <point x="617" y="346"/>
      <point x="474" y="268"/>
      <point x="471" y="266" type="curve" smooth="no"/>
      <point x="1062" y="266" type="line" smooth="no"/>
      <point x="1062" y="0" type="line" smooth="no"/>
      <point x="191" y="0" type="line" smooth="no"/>
      <point x="191" y="260" type="line" smooth="no"/>
      <point x="196" y="270" type="line" smooth="no"/>
      <point x="228" y="306"/>
      <point x="333" y="437"/>
      <point x="333" y="573" type="curve" smooth="no"/>
      <point x="206" y="572" type="line" smooth="no"/>
      <point x="206" y="715" type="line" smooth="no"/>
      <point x="309" y="715" type="line" smooth="yes"/>
      <point x="304" y="715"/>
      <point x="197" y="814"/>
      <point x="197" y="956" type="curve" smooth="yes"/>
      <point x="197" y="1167"/>
      <point x="360" y="1322"/>
      <point x="659" y="1322" type="curve" smooth="yes"/>
      <point x="920.166" y="1322"/>
      <point x="1055.49" y="1221.28"/>
      <point x="1097" y="1189" type="curve" smooth="no"/>
    </contour>
  </outline>
</glyph>
<glyph name="yen" format="1">
  <advance width="1277"/>
  <unicode hex="00a5"/>
  <outline>
    <contour>
      <point x="636" y="811" type="line" smooth="no"/>
      <point x="936" y="1577" type="line" smooth="no"/>
      <point x="1320" y="1577" type="line" smooth="no"/>
      <point x="932" y="771" type="line" smooth="no"/>
      <point x="1134" y="771" type="line" smooth="no"/>
      <point x="1134" y="651" type="line" smooth="no"/>
      <point x="874" y="651" type="line" smooth="no"/>
      <point x="812" y="522" type="line" smooth="no"/>
      <point x="1134" y="522" type="line" smooth="no"/>
      <point x="1134" y="402" type="line" smooth="no"/>
      <point x="810" y="402" type="line" smooth="no"/>
      <point x="810" y="0" type="line" smooth="no"/>
      <point x="462" y="0" type="line" smooth="no"/>
      <point x="462" y="402" type="line" smooth="no"/>
      <point x="138" y="402" type="line" smooth="no"/>
      <point x="138" y="522" type="line" smooth="no"/>
      <point x="460" y="522" type="line" smooth="no"/>
      <point x="399" y="651" type="line" smooth="no"/>
      <point x="138" y="651" type="line" smooth="no"/>
      <point x="138" y="771" type="line" smooth="no"/>
      <point x="342" y="771" type="line" smooth="no"/>
      <point x="-42" y="1577" type="line" smooth="no"/>
      <point x="336" y="1577" type="line" smooth="no"/>
    </contour>
  </outline>
</glyph>
<glyph name="copyright" format="1">
  <advance width="2080"/>
  <unicode hex="00a9"/>
  <outline>
    <contour>
      <point x="1074" y="101" type="curve" smooth="yes"/>
      <point x="1471" y="101"/>
      <point x="1753" y="411"/>
      <point x="1753" y="789" type="curve" smooth="yes"/>
      <point x="1753" y="1061"/>
      <point x="1562" y="1468"/>
      <point x="1055" y="1468" type="curve" smooth="yes"/>
      <point x="733" y="1468"/>
      <point x="391" y="1210"/>
      <point x="391" y="783" type="curve" smooth="yes"/>
      <point x="391" y="404"/>
      <point x="665" y="101"/>
    </contour>
    <contour>
      <point x="1060" y="1703" type="curve" smooth="yes"/>
      <point x="1610" y="1703"/>
      <point x="1884" y="1325"/>
      <point x="1968" y="1059" type="curve" smooth="yes"/>
      <point x="1997" y="964"/>
      <point x="2009" y="862"/>
      <point x="2009" y="743" type="curve" smooth="yes"/>
      <point x="2009" y="522"/>
      <point x="1884" y="112"/>
      <point x="1418" y="-68" type="curve" smooth="yes"/>
      <point x="1307" y="-111"/>
      <point x="1189" y="-133"/>
      <point x="1066" y="-133" type="curve" smooth="yes"/>
      <point x="572" y="-133"/>
      <point x="135" y="238"/>
      <point x="135" y="786" type="curve" smooth="yes"/>
      <point x="135" y="1338"/>
      <point x="600" y="1703"/>
    </contour>
    <contour>
      <point x="844" y="784" type="curve" smooth="yes"/>
      <point x="844" y="542.316"/>
      <point x="960.81" y="463.209"/>
      <point x="1093.32" y="463.209" type="curve" smooth="yes"/>
      <point x="1193.01" y="463.209"/>
      <point x="1301.59" y="507.988"/>
      <point x="1376" y="562" type="curve" smooth="no"/>
      <point x="1376" y="354" type="line" smooth="no"/>
      <point x="1282.68" y="307.34"/>
      <point x="1177.61" y="270"/>
      <point x="1092" y="270" type="curve" smooth="yes"/>
      <point x="713" y="270"/>
      <point x="608" y="547"/>
      <point x="608" y="794" type="curve" smooth="yes"/>
      <point x="608" y="1096"/>
      <point x="786" y="1298"/>
      <point x="1076" y="1298" type="curve" smooth="no"/>
      <point x="1185.08" y="1296.77"/>
      <point x="1311.59" y="1252.25"/>
      <point x="1368" y="1217" type="curve" smooth="no"/>
      <point x="1368" y="1007" type="line" smooth="no"/>
      <point x="1275.15" y="1067.78"/>
      <point x="1178.77" y="1101.41"/>
      <point x="1094.38" y="1101.41" type="curve" smooth="yes"/>
      <point x="952.183" y="1101.41"/>
      <point x="844" y="1005.94"/>
    </contour>
  </outline>
</glyph>
<glyph name="ordfeminine" format="1">
  <advance width="1249"/>
  <unicode hex="00aa"/>
  <outline>
    <contour>
      <point x="591" y="803" type="curve" smooth="yes"/>
      <point x="650" y="803"/>
      <point x="699" y="828"/>
      <point x="740" y="877" type="curve" smooth="no"/>
      <point x="740" y="1060" type="line" smooth="yes"/>
      <point x="740" y="1062"/>
      <point x="677" y="1067"/>
      <point x="663" y="1067" type="curve" smooth="yes"/>
      <point x="526" y="1067"/>
      <point x="472" y="1032"/>
      <point x="472" y="941" type="curve" smooth="yes"/>
      <point x="472" y="850"/>
      <point x="516" y="803"/>
    </contour>
    <contour>
      <point x="616" y="1392" type="curve" smooth="yes"/>
      <point x="509" y="1392"/>
      <point x="409" y="1370"/>
      <point x="318" y="1327" type="curve" smooth="no"/>
      <point x="251" y="1495" type="line" smooth="no"/>
      <point x="350" y="1556"/>
      <point x="475" y="1586"/>
      <point x="626" y="1586" type="curve" smooth="yes"/>
      <point x="905" y="1586"/>
      <point x="1019" y="1446"/>
      <point x="1019" y="1168" type="curve" smooth="yes"/>
      <point x="1019" y="629" type="line" smooth="no"/>
      <point x="802" y="629" type="line" smooth="no"/>
      <point x="763" y="749" type="line" smooth="no"/>
      <point x="710" y="656"/>
      <point x="637" y="608"/>
      <point x="518" y="608" type="curve" smooth="yes"/>
      <point x="311" y="608"/>
      <point x="192" y="719"/>
      <point x="192" y="918" type="curve" smooth="yes"/>
      <point x="192" y="1117"/>
      <point x="349" y="1212"/>
      <point x="618" y="1212" type="curve" smooth="yes"/>
      <point x="665" y="1212"/>
      <point x="705" y="1209"/>
      <point x="740" y="1203" type="curve" smooth="no"/>
      <point x="740" y="1375"/>
      <point x="698" y="1392"/>
    </contour>
  </outline>
</glyph>
<glyph name="macron" format="1">
  <advance width="659"/>
  <unicode hex="00af"/>
  <outline>
    <contour>
      <point x="341" y="122" type="line" smooth="no"/>
      <point x="-341" y="122" type="line" smooth="no"/>
      <point x="-341" y="249" type="line" smooth="no"/>
      <point x="341" y="249" type="line" smooth="no"/>
    </contour>
  </outline>
</glyph>
<glyph name="uni00B2" format="1">
  <advance width="1174"/>
  <unicode hex="00b2"/>
  <outline>
    <contour>
      <point x="162" y="1473" type="line" smooth="no"/>
      <point x="195.9" y="1489.95"/>
      <point x="379.55" y="1575"/>
      <point x="524" y="1575" type="curve" smooth="yes"/>
      <point x="699" y="1575"/>
      <point x="896" y="1505"/>
      <point x="896" y="1289" type="curve" smooth="yes"/>
      <point x="896" y="1161"/>
      <point x="851.483" y="1067.14"/>
      <point x="688" y="939" type="curve" smooth="yes"/>
      <point x="540" y="823" type="line" smooth="no"/>
      <point x="871" y="823" type="line" smooth="no"/>
      <point x="871" y="622" type="line" smooth="no"/>
      <point x="184" y="622" type="line" smooth="no"/>
      <point x="184" y="796" type="line" smooth="no"/>
      <point x="444" y="1016" type="line" smooth="yes"/>
      <point x="500.514" y="1063.82"/>
      <point x="629" y="1165.13"/>
      <point x="629" y="1251" type="curve" smooth="yes"/>
      <point x="629" y="1328"/>
      <point x="593" y="1366"/>
      <point x="506" y="1366" type="curve" smooth="yes"/>
      <point x="421.899" y="1366"/>
      <point x="304.588" y="1315.85"/>
      <point x="235" y="1282" type="curve" smooth="no"/>
    </contour>
  </outline>
</glyph>
<glyph name="uni00B3" format="1">
  <advance width="1179"/>
  <unicode hex="00b3"/>
  <outline>
    <contour>
      <point x="622" y="1340" type="curve" smooth="yes"/>
      <point x="622" y="1400"/>
      <point x="569" y="1429"/>
      <point x="490" y="1429" type="curve" smooth="yes"/>
      <point x="399.403" y="1429"/>
      <point x="295.041" y="1387.16"/>
      <point x="262" y="1373" type="curve" smooth="no"/>
      <point x="171" y="1556" type="line" smooth="no"/>
      <point x="223.881" y="1586.22"/>
      <point x="328.936" y="1639"/>
      <point x="470" y="1639" type="curve" smooth="yes"/>
      <point x="706" y="1639"/>
      <point x="870" y="1560"/>
      <point x="870" y="1330" type="curve" smooth="yes"/>
      <point x="870" y="1233"/>
      <point x="808" y="1139"/>
      <point x="709" y="1115" type="curve" smooth="no"/>
      <point x="818" y="1089"/>
      <point x="899" y="980"/>
      <point x="899" y="868" type="curve" smooth="yes"/>
      <point x="899" y="636"/>
      <point x="722" y="536"/>
      <point x="485" y="536" type="curve" smooth="no"/>
      <point x="331.919" y="534.907"/>
      <point x="234.138" y="569.941"/>
      <point x="185" y="591" type="curve" smooth="no"/>
      <point x="253" y="792" type="line" smooth="no"/>
      <point x="265" y="786"/>
      <point x="366" y="743"/>
      <point x="477" y="743" type="curve" smooth="yes"/>
      <point x="584" y="743"/>
      <point x="640" y="777"/>
      <point x="640" y="866" type="curve" smooth="yes"/>
      <point x="640" y="967.576"/>
      <point x="522.661" y="1016"/>
      <point x="403" y="1016" type="curve" smooth="no"/>
      <point x="403" y="1213" type="line" smooth="no"/>
      <point x="514" y="1213"/>
      <point x="622" y="1247"/>
    </contour>
  </outline>
</glyph>
<glyph name="paragraph" format="1">
  <advance width="1364"/>
  <unicode hex="00b6"/>
  <outline>
    <contour>
      <point x="1288" y="1577" type="line" smooth="no"/>
      <point x="1288" y="0" type="line" smooth="no"/>
      <point x="1032" y="0" type="line" smooth="no"/>
      <point x="1032" y="1428" type="line" smooth="no"/>
      <point x="897" y="1428" type="line" smooth="no"/>
      <point x="897" y="0" type="line" smooth="no"/>
      <point x="638" y="0" type="line" smooth="no"/>
      <point x="638" y="711" type="line" smooth="no"/>
      <point x="343" y="711"/>
      <point x="79" y="809"/>
      <point x="79" y="1155" type="curve" smooth="yes"/>
      <point x="79" y="1523"/>
      <point x="411" y="1577"/>
      <point x="682" y="1577" type="curve" smooth="yes"/>
    </contour>
  </outline>
</glyph>
<glyph name="onequarter" format="1">
  <advance width="1975"/>
  <unicode hex="00bc"/>
  <outline>
    <contour>
      <point x="447" y="-29" type="line" smooth="no"/>
      <point x="1153" y="1541" type="line" smooth="no"/>
      <point x="1379" y="1458" type="line" smooth="no"/>
      <point x="666" y="-107" type="line" smooth="no"/>
    </contour>
    <contour>
      <point x="1526" y="1023" type="line" smooth="no"/>
      <point x="1733" y="970" type="line" smooth="no"/>
      <point x="1733" y="303" type="line" smooth="no"/>
      <point x="1872" y="303" type="line" smooth="no"/>
      <point x="1872" y="96" type="line" smooth="no"/>
      <point x="1733" y="96" type="line" smooth="no"/>
      <point x="1733" y="-125" type="line" smooth="no"/>
      <point x="1489" y="-125" type="line" smooth="no"/>
      <point x="1489" y="96" type="line" smooth="no"/>
      <point x="1040" y="96" type="line" smooth="no"/>
      <point x="1007" y="257" type="line" smooth="no"/>
    </contour>
    <contour>
      <point x="1313" y="301" type="line" smooth="no"/>
      <point x="1489" y="301" type="line" smooth="no"/>
      <point x="1489" y="597" type="line" smooth="no"/>
    </contour>
    <contour>
      <point x="258" y="411" type="line" smooth="no"/>
      <point x="258" y="1125" type="line" smooth="no"/>
      <point x="133" y="1071" type="line" smooth="no"/>
      <point x="58" y="1261" type="line" smooth="no"/>
      <point x="344" y="1373" type="line" smooth="no"/>
      <point x="522" y="1333" type="line" smooth="no"/>
      <point x="522" y="411" type="line" smooth="no"/>
    </contour>
  </outline>
</glyph>
<glyph name="AE" format="1">
  <advance width="1917"/>
  <unicode hex="00c6"/>
  <outline>
    <contour>
      <point x="1859" y="1577" type="line" smooth="no"/>
      <point x="1859" y="1374" type="line" smooth="no"/>
      <point x="1190" y="1374" type="line" smooth="no"/>
      <point x="1190" y="939" type="line" smooth="no"/>
      <point x="1769" y="939" type="line" smooth="no"/>
      <point x="1769" y="742" type="line" smooth="no"/>
      <point x="1190" y="742" type="line" smooth="no"/>
      <point x="1190" y="223" type="line" smooth="no"/>
      <point x="1869" y="223" type="line" smooth="no"/>
      <point x="1869" y="0" type="line" smooth="no"/>
      <point x="829" y="0" type="line" smooth="no"/>
      <point x="829" y="350" type="line" smooth="no"/>
      <point x="488" y="350" type="line" smooth="no"/>
      <point x="366" y="0" type="line" smooth="no"/>
      <point x="7" y="0" type="line" smooth="no"/>
      <point x="627" y="1577" type="line" smooth="no"/>
    </contour>
    <contour>
      <point x="829" y="520" type="line" smooth="no"/>
      <point x="829" y="1343" type="line" smooth="no"/>
      <point x="535" y="520" type="line" smooth="no"/>
    </contour>
  </outline>
</glyph>
<glyph name="Thorn" format="1">
  <advance width="1289"/>
  <unicode hex="00de"/>
  <outline>
    <contour>
      <point x="451" y="165" type="line" smooth="no"/>
      <point x="451" y="-219" type="line" smooth="no"/>
      <point x="100" y="-219" type="line" smooth="no"/>
      <point x="100" y="1578" type="line" smooth="no"/>
      <point x="450" y="1578" type="line" smooth="no"/>
      <point x="450" y="1299" type="line" smooth="no"/>
      <point x="736" y="1299" type="line" smooth="yes"/>
      <point x="1061" y="1299"/>
      <point x="1211" y="1051.35"/>
      <point x="1211" y="706" type="curve" smooth="yes"/>
      <point x="1211" y="359.611"/>
      <point x="1015" y="165"/>
      <point x="724" y="165" type="curve" smooth="yes"/>
    </contour>
    <contour>
      <point x="858" y="730" type="curve" smooth="yes"/>
      <point x="858" y="951.686"/>
      <point x="791" y="1063"/>
      <point x="656" y="1063" type="curve" smooth="yes"/>
      <point x="451" y="1063" type="line" smooth="no"/>
      <point x="451" y="399" type="line" smooth="no"/>
      <point x="687" y="399" type="line" smooth="yes"/>
      <point x="854" y="399"/>
      <point x="858" y="600.633"/>
    </contour>
  </outline>
</glyph>
<glyph name="eth" format="1">
  <advance width="1262"/>
  <unicode hex="00f0"/>
  <outline>
    <contour>
      <point x="428" y="586" type="curve" smooth="yes"/>
      <point x="428" y="400"/>
      <point x="472" y="220"/>
      <point x="630" y="220" type="curve" smooth="yes"/>
      <point x="781" y="220"/>
      <point x="834" y="389"/>
      <point x="834" y="555" type="curve" smooth="yes"/>
      <point x="834" y="856" type="line" smooth="no"/>
      <point x="769" y="920"/>
      <point x="690" y="952"/>
      <point x="599" y="952" type="curve" smooth="yes"/>
      <point x="441" y="952"/>
      <point x="428" y="757"/>
    </contour>
    <contour>
      <point x="1184" y="612" type="curve" smooth="yes"/>
      <point x="1184" y="171"/>
      <point x="953" y="-16"/>
      <point x="585" y="-16" type="curve" smooth="yes"/>
      <point x="219" y="-16"/>
      <point x="78" y="262"/>
      <point x="78" y="598" type="curve" smooth="yes"/>
      <point x="78" y="943"/>
      <point x="248" y="1186"/>
      <point x="525" y="1186" type="curve" smooth="yes"/>
      <point x="663" y="1186"/>
      <point x="766" y="1139"/>
      <point x="834" y="1046" type="curve" smooth="no"/>
      <point x="822" y="1117"/>
      <point x="754" y="1234"/>
      <point x="659" y="1338" type="curve" smooth="no"/>
      <point x="425" y="1263" type="line" smooth="no"/>
      <point x="383" y="1413" type="line" smooth="no"/>
      <point x="535" y="1462" type="line" smooth="no"/>
      <point x="482" y="1509"/>
      <point x="430" y="1547"/>
      <point x="381" y="1575" type="curve" smooth="no"/>
      <point x="531" y="1752" type="line" smooth="no"/>
      <point x="634" y="1685"/>
      <point x="691" y="1653"/>
      <point x="788" y="1566" type="curve" smooth="yes"/>
      <point x="807" y="1549" type="line" smooth="no"/>
      <point x="1101" y="1644" type="line" smooth="no"/>
      <point x="1143" y="1494" type="line" smooth="no"/>
      <point x="927" y="1424" type="line" smooth="no"/>
      <point x="1075" y="1236"/>
      <point x="1184" y="992"/>
    </contour>
  </outline>
</glyph>
<glyph name="gcedilla" format="1">
  <advance width="1268"/>
  <unicode hex="0123"/>
  <outline>
    <component base="g"/>
    <contour>
      <point x="861" y="1713" type="line" smooth="no"/>
      <point x="861" y="1298" type="line" smooth="no"/>
      <point x="443" y="1298" type="line" smooth="no"/>
      <point x="443" y="1660" type="line" smooth="yes"/>
      <point x="443" y="1900"/>
      <point x="630" y="1970"/>
      <point x="798" y="2020" type="curve" smooth="no"/>
      <point x="860" y="1906" type="line" smooth="no"/>
      <point x="733" y="1860"/>
      <point x="683" y="1815"/>
      <point x="683" y="1713" type="curve" smooth="no"/>
    </contour>
  </outline>
</glyph>
<glyph name="dotlessi" format="1">
  <advance width="669"/>
  <unicode hex="0131"/>
  <outline>
    <contour>
      <point x="508" y="0" type="line" smooth="no"/>
      <point x="157" y="0" type="line" smooth="no"/>
      <point x="157" y="1160" type="line" smooth="no"/>
      <point x="508" y="1160" type="line" smooth="no"/>
    </contour>
  </outline>
</glyph>
<glyph name="Lslash" format="1">
  <advance width="1200"/>
  <unicode hex="0141"/>
  <outline>
    <contour>
      <point x="0" y="588" type="line" smooth="no"/>
      <point x="0" y="850" type="line" smooth="no"/>
      <point x="149" y="939.72" type="line" smooth="no"/>
      <point x="149" y="1578" type="line" smooth="no"/>
      <point x="517" y="1578" type="line" smooth="no"/>
      <point x="517" y="1161.31" type="line" smooth="no"/>
      <point x="726" y="1301" type="line" smooth="no"/>
      <point x="726" y="1039" type="line" smooth="no"/>
      <point x="517" y="899.312" type="line" smooth="no"/>
      <point x="517" y="268" type="line" smooth="no"/>
      <point x="1200" y="268" type="line" smooth="no"/>
      <point x="1200" y="0" type="line" smooth="no"/>
      <point x="149" y="0" type="line" smooth="no"/>
      <point x="149" y="677.72" type="line" smooth="no"/>
    </contour>
  </outline>
</glyph>
<glyph name="emdash" format="1">
  <advance width="2048"/>
  <unicode hex="2014"/>
  <outline>
    <contour>
      <point x="156" y="574" type="line" smooth="no"/>
      <point x="156" y="836" type="line" smooth="no"/>
      <point x="1878" y="836" type="line" smooth="no"/>
      <point x="1878" y="574" type="line" smooth="no"/>
    </contour>
  </outline>
</glyph>
<glyph name="quoteleft" format="1">
  <advance width="670"/>
  <unicode hex="2018"/>
  <outline>
    <contour>
      <point x="537" y="1271" type="line" smooth="no"/>
      <point x="537" y="856" type="line" smooth="no"/>
      <point x="119" y="856" type="line" smooth="no"/>
      <point x="119" y="1218" type="line" smooth="yes"/>
      <point x="119" y="1457"/>
      <point x="306" y="1528"/>
      <point x="474" y="1578" type="curve" smooth="no"/>
      <point x="536" y="1464" type="line" smooth="no"/>
      <point x="409" y="1417"/>
      <point x="359" y="1372"/>
      <point x="359" y="1271" type="curve" smooth="no"/>
    </contour>
  </outline>
</glyph>
<glyph name="quotesinglbase" format="1">
  <advance width="672"/>
  <unicode hex="201a"/>
  <outline>
    <contour>
      <point x="140" y="0" type="line" smooth="no"/>
      <point x="140" y="415" type="line" smooth="no"/>
      <point x="558" y="415" type="line" smooth="no"/>
      <point x="558" y="53" type="line" smooth="yes"/>
      <point x="558" y="-187"/>
      <point x="371" y="-257"/>
      <point x="203" y="-307" type="curve" smooth="no"/>
      <point x="141" y="-193" type="line" smooth="no"/>
      <point x="268" y="-147"/>
      <point x="318" y="-102"/>
      <point x="318" y="0" type="curve" smooth="no"/>
    </contour>
  </outline>
</glyph>
<glyph name="quotedblright" format="1">
  <advance width="1002"/>
  <unicode hex="201d"/>
  <outline>
    <contour>
      <point x="583" y="1163" type="line" smooth="no"/>
      <point x="583" y="1578" type="line" smooth="no"/>
      <point x="1001" y="1578" type="line" smooth="no"/>
      <point x="1001" y="1216" type="line" smooth="yes"/>
      <point x="1001" y="980"/>
      <point x="820" y="907"/>
      <point x="646" y="856" type="curve" smooth="no"/>
      <point x="584" y="970" type="line" smooth="no"/>
      <point x="711" y="1016"/>
      <point x="761" y="1061"/>
      <point x="761" y="1163" type="curve" smooth="no"/>
    </contour>
    <contour>
      <point x="59" y="1163" type="line" smooth="no"/>
      <point x="59" y="1578" type="line" smooth="no"/>
      <point x="477" y="1578" type="line" smooth="no"/>
      <point x="477" y="1216" type="line" smooth="yes"/>
      <point x="477" y="980"/>
      <point x="296" y="907"/>
      <point x="122" y="856" type="curve" smooth="no"/>
      <point x="60" y="970" type="line" smooth="no"/>
      <point x="187" y="1016"/>
      <point x="237" y="1061"/>
      <point x="237" y="1163" type="curve" smooth="no"/>
    </contour>
  </outline>
</glyph>
<glyph name="lessequal" format="1">
  <advance width="1136"/>
  <unicode hex="2264"/>
  <outline>
    <contour>
      <point x="145" y="0" type="line" smooth="no"/>
      <point x="145" y="212" type="line" smooth="no"/>
      <point x="988.6" y="212" type="line" smooth="no"/>
      <point x="988.6" y="0" type="line" smooth="no"/>
    </contour>
    <contour>
      <point x="145" y="703" type="line" smooth="no"/>
      <point x="145" y="939" type="line" smooth="no"/>
      <point x="985" y="1390" type="line" smooth="no"/>
      <point x="985" y="1089" type="line" smooth="no"/>
      <point x="400" y="821" type="line" smooth="no"/>
      <point x="986" y="599" type="line" smooth="no"/>
      <point x="986" y="298" type="line" smooth="no"/>
    </contour>
  </outline>
</glyph>
<glyph name="uniFB02" format="1">
  <advance width="1504"/>
  <unicode hex="fb02"/>
  <outline>
    <contour>
      <point x="564" y="1164" type="curve" smooth="no"/>
      <point x="844" y="1164" type="line" smooth="no"/>
      <point x="844" y="1004" type="line" smooth="no"/>
      <point x="563" y="1004" type="line" smooth="no"/>
      <point x="563" y="0" type="line" smooth="no"/>
      <point x="213" y="0" type="line" smooth="no"/>
      <point x="213" y="1004" type="line" smooth="no"/>
      <point x="23" y="1004" type="line" smooth="no"/>
      <point x="23" y="1164" type="line" smooth="no"/>
      <point x="213" y="1164" type="line" smooth="no"/>
      <point x="213" y="1586"/>
      <point x="465" y="1673"/>
      <point x="800" y="1673" type="curve" smooth="yes"/>
      <point x="972.998" y="1673"/>
      <point x="1167.5" y="1650"/>
      <point x="1362" y="1638" type="curve" smooth="no"/>
      <point x="1362" y="0" type="line" smooth="no"/>
      <point x="1011" y="0" type="line" smooth="no"/>
      <point x="1011" y="1399" type="line" smooth="no"/>
      <point x="923.842" y="1402"/>
      <point x="844.263" y="1413"/>
      <point x="777" y="1413" type="curve" smooth="yes"/>
      <point x="648" y="1413"/>
      <point x="564" y="1373"/>
    </contour>
  </outline>
</glyph>
<glyph name="fj" format="1">
  <advance width="1489"/>
  <outline>
    <contour>
      <point x="701" y="1403" type="curve" smooth="yes"/>
      <point x="610" y="1403"/>
      <point x="564" y="1346"/>
      <point x="564" y="1164" type="curve" smooth="no"/>
      <point x="1365.2" y="1164" type="line" smooth="no"/>
      <point x="1365.2" y="203" type="line" smooth="yes"/>
      <point x="1365.2" y="-86"/>
      <point x="1159.2" y="-292"/>
      <point x="916.2" y="-348" type="curve" smooth="no"/>
      <point x="805.2" y="-113" type="line" smooth="no"/>
      <point x="937.2" y="-38"/>
      <point x="1014.2" y="39"/>
      <point x="1014.2" y="223" type="curve" smooth="yes"/>
      <point x="1014.2" y="1004" type="line" smooth="no"/>
      <point x="563" y="1004" type="line" smooth="no"/>
      <point x="563" y="0" type="line" smooth="no"/>
      <point x="213" y="0" type="line" smooth="no"/>
      <point x="213" y="1004" type="line" smooth="no"/>
      <point x="23" y="1004" type="line" smooth="no"/>
      <point x="23" y="1164" type="line" smooth="no"/>
      <point x="213" y="1164" type="line" smooth="no"/>
      <point x="213" y="1489"/>
      <point x="344" y="1662"/>
      <point x="621" y="1662" type="curve" smooth="yes"/>
      <point x="697" y="1662"/>
      <point x="773" y="1651"/>
      <point x="850" y="1633" type="curve" smooth="no"/>
      <point x="850" y="1378" type="line" smooth="no"/>
      <point x="805" y="1395"/>
      <point x="756" y="1403"/>
    </contour>
    <contour>
      <point x="999.2" y="1532" type="curve" smooth="yes"/>
      <point x="999.2" y="1644"/>
      <point x="1079.2" y="1726"/>
      <point x="1188.2" y="1726" type="curve" smooth="yes"/>
      <point x="1298.2" y="1726"/>
      <point x="1377.2" y="1641"/>
      <point x="1377.2" y="1532" type="curve" smooth="yes"/>
      <point x="1377.2" y="1423"/>
      <point x="1299.2" y="1338"/>
      <point x="1188.2" y="1338" type="curve" smooth="yes"/>
      <point x="1076.2" y="1338"/>
      <point x="999.2" y="1427"/>
    </contour>
  </outline>
</glyph>
